<svg xmlns="http://www.w3.org/2000/svg" viewBox="0 0 333333 258070" shape-rendering="geometricPrecision" text-rendering="geometricPrecision" image-rendering="optimizeQuality" fill-rule="evenodd" clip-rule="evenodd" fill="#ffd900"><path d="M273846 63259c0-5668 4596-10264 10264-10264s10264 4596 10264 10264v131551c0 5668-4596 10264-10264 10264s-10264-4596-10264-10264V63259zM0 86328c0-5662 4591-10253 10253-10253s10252 4591 10252 10253v85414c0 5662-4591 10253-10252 10253-5662 0-10253-4591-10253-10253V86328zm39111-23069c0-5668 4596-10264 10264-10264s10264 4596 10264 10264v131551c0 5668-4596 10264-10264 10264s-10264-4596-10264-10264V63259zm39286-25562c0-5635 4522-10203 10101-10203 5578 0 10101 4568 10101 10203v182676c0 5635-4522 10203-10101 10203-5578 0-10101-4568-10101-10203V37697zm38959-27432c0-5669 4596-10265 10265-10265s10265 4596 10265 10265v237540c0 5669-4596 10265-10265 10265-5668 0-10265-4596-10265-10265V10265zm117379 76063c0-5662 4591-10253 10253-10253s10253 4591 10253 10253v85414c0 5662-4591 10253-10253 10253s-10253-4591-10253-10253V86328zm-39134-23069c0-5668 4596-10264 10264-10264s10264 4596 10264 10264v131551c0 5668-4596 10264-10264 10264s-10264-4596-10264-10264V63259zm-38959-25562c0-5635 4522-10203 10100-10203s10101 4568 10101 10203v182675c0 5635-4522 10203-10101 10203-5578 0-10100-4568-10100-10203V37697zm156490 0c0-5635 4522-10203 10100-10203s10101 4568 10101 10203v182676c0 5635-4522 10203-10101 10203-5578 0-10100-4568-10100-10203V37697z" fill-rule="nonzero"/></svg>